<svg width="78" height="70" viewBox="0 0 78 70" fill="none" xmlns="http://www.w3.org/2000/svg">
<path d="M53.4081 21.5416V19.3496C53.4081 17.2057 51.664 15.4617 49.5201 15.4617H28.7844C26.6405 15.4617 24.8965 17.2057 24.8965 19.3496V21.5209C24.0522 22.702 22.3045 25.3609 22.3045 27.1255C22.3045 28.8128 23.3913 30.2379 24.8965 30.7746V48.7252C24.8965 52.2984 27.8032 55.2051 31.3764 55.2051H46.9282C50.5014 55.2051 53.4081 52.2984 53.4081 48.7252V30.7746C54.9133 30.2379 56 28.8128 56 27.1255C56 25.5668 54.2362 22.7691 53.4081 21.5416ZM33.9683 50.0212C31.8244 50.0212 30.0804 48.2771 30.0804 46.1332C30.0804 43.9893 31.8244 42.2453 33.9683 42.2453C36.1122 42.2453 37.8563 43.9893 37.8563 46.1332C37.8563 48.2771 36.1122 50.0212 33.9683 50.0212ZM41.7442 46.5653C41.0285 46.5653 40.4482 45.985 40.4482 45.2693C40.4482 44.5535 41.0284 43.9733 41.7442 43.9733C42.46 43.9733 43.0402 44.5535 43.0402 45.2693C43.0402 45.985 42.46 46.5653 41.7442 46.5653ZM47.7921 42.2453C47.0764 42.2453 46.4961 41.665 46.4961 40.9493C46.4961 40.2335 47.0764 39.6533 47.7921 39.6533C48.5078 39.6533 49.0881 40.2335 49.0881 40.9493C49.0881 41.665 48.5079 42.2453 47.7921 42.2453ZM50.8161 33.6054H27.4884V30.7915C27.5074 30.7848 27.5237 30.7731 27.5426 30.7661C27.6975 30.7085 27.8422 30.6333 27.9872 30.5571C28.0576 30.5202 28.1325 30.4918 28.2003 30.4507C28.408 30.3248 28.6045 30.1825 28.7844 30.0212C29.473 30.638 30.3816 31.0134 31.3764 31.0134C32.3712 31.0134 33.2798 30.6379 33.9683 30.0212C34.6568 30.638 35.5655 31.0134 36.5603 31.0134C37.555 31.0134 38.4637 30.6379 39.1522 30.0212C39.8407 30.638 40.7494 31.0134 41.7441 31.0134C42.739 31.0134 43.6476 30.6379 44.3361 30.0212C45.0246 30.638 45.9333 31.0134 46.928 31.0134C47.9228 31.0134 48.8314 30.6379 49.52 30.0212C49.6999 30.1824 49.8964 30.3248 50.1041 30.4507C50.1718 30.4918 50.2468 30.5202 50.3172 30.5571C50.4622 30.6333 50.6069 30.7085 50.7618 30.7661C50.7807 30.7731 50.797 30.7849 50.816 30.7915V33.6054H50.8161ZM52.1121 28.4215C51.3975 28.4215 50.8161 27.8401 50.8161 27.1255C50.8161 26.4096 50.236 25.8295 49.5201 25.8295C48.8042 25.8295 48.2241 26.4096 48.2241 27.1255C48.2241 27.8401 47.6427 28.4215 46.9281 28.4215C46.2135 28.4215 45.6321 27.8401 45.6321 27.1255C45.6321 26.4096 45.052 25.8295 44.3361 25.8295C43.6202 25.8295 43.0401 26.4096 43.0401 27.1255C43.0401 27.8401 42.4587 28.4215 41.7441 28.4215C41.0295 28.4215 40.448 27.8401 40.448 27.1255C40.448 26.4096 39.868 25.8295 39.152 25.8295C38.4361 25.8295 37.856 26.4096 37.856 27.1255C37.856 27.8401 37.2746 28.4215 36.56 28.4215C35.8454 28.4215 35.264 27.8401 35.264 27.1255C35.264 26.4096 34.6839 25.8295 33.968 25.8295C33.2521 25.8295 32.672 26.4096 32.672 27.1255C32.672 27.8401 32.0906 28.4215 31.376 28.4215C30.6614 28.4215 30.08 27.8401 30.08 27.1255C30.08 26.4096 29.4999 25.8295 28.784 25.8295C28.068 25.8295 27.488 26.4096 27.488 27.1255C27.488 27.8401 26.9065 28.4215 26.1919 28.4215C25.4773 28.4215 24.8959 27.8401 24.8959 27.1255C24.8959 26.4547 25.8523 24.6905 26.8576 23.2376H51.4235C52.5073 24.8841 53.3975 26.6109 53.4076 27.1259C53.4081 27.8402 52.8267 28.4215 52.1121 28.4215Z" fill="#49B2FC"/>
<rect x="0.75" y="0.75" width="76.5" height="68.5" rx="14.25" stroke="#49B2FC" stroke-width="1.5"/>
</svg>
