<svg width="78" height="70" viewBox="0 0 78 70" fill="none" xmlns="http://www.w3.org/2000/svg">
<path d="M19.2305 52.911H21.6913C22.3708 52.911 22.9216 52.3601 22.9216 51.6806V38.1466H19.2305C18.5511 38.1466 18.0002 38.6975 18.0002 39.377V51.6806C18.0002 52.36 18.5511 52.911 19.2305 52.911ZM50.1537 16C44.7175 16 40.3108 20.4068 40.3108 25.8429C40.3108 31.2789 44.7175 35.6858 50.1537 35.6858C55.5898 35.6858 59.9966 31.2789 59.9966 25.8429C59.9966 20.4068 55.5898 16 50.1537 16ZM52.2156 30.2711C51.9491 30.4043 51.6697 30.5092 51.3839 30.5886V30.9286C51.3839 31.6081 50.833 32.1589 50.1535 32.1589C49.474 32.1589 48.9231 31.6081 48.9231 30.9286V30.627C48.411 30.4981 47.9334 30.2813 47.5287 29.9779C46.9852 29.5702 46.8749 28.7991 47.2827 28.2554C47.6904 27.7119 48.4616 27.6016 49.0052 28.0093C49.4973 28.3784 50.4439 28.4058 51.1151 28.0702C51.3848 27.9353 51.5304 27.7729 51.5304 27.6886C51.5304 27.5414 51.5304 27.5187 51.3667 27.4313C51.0457 27.26 50.4781 27.1546 49.9291 27.0528C49.1962 26.9168 48.4384 26.7763 47.7817 26.4258C46.8227 25.9139 46.3158 25.0743 46.3158 23.9975C46.3158 22.9196 46.9623 21.9781 48.0894 21.4146C48.3564 21.2817 48.6356 21.1749 48.9231 21.0958V20.7576C48.9231 20.0781 49.474 19.5272 50.1535 19.5272C50.833 19.5272 51.3839 20.0781 51.3839 20.7576V21.0588C51.8961 21.1879 52.3736 21.4048 52.7783 21.7082C53.3219 22.116 53.4321 22.8872 53.0243 23.4307C52.6166 23.9743 51.8456 24.0846 51.3018 23.6768C50.809 23.3071 49.8616 23.2797 49.1898 23.6155C48.9185 23.7511 48.7766 23.9103 48.7766 23.9974C48.7766 24.1448 48.7766 24.1674 48.9403 24.2548C49.2613 24.4262 49.829 24.5315 50.3779 24.6333C51.1108 24.7693 51.8686 24.9099 52.5254 25.2604C53.4843 25.7722 53.9912 26.6119 53.9912 27.6886C53.9913 28.7655 53.344 29.7068 52.2156 30.2711ZM40.2124 53.5672H40.4831C44.6171 53.5179 48.5788 52.3451 52.0732 50.2287L58.9385 45.4304C60.095 44.6182 60.3165 43.0927 59.5537 42.01C58.7663 40.8779 57.2406 40.6073 56.1333 41.3948L49.5386 46.0209C47.4223 47.2513 44.8387 47.522 42.5009 46.7345L34.9137 44.2244C34.2739 44.0277 33.9293 43.314 34.1508 42.6744C34.3476 42.0592 34.9874 41.7147 35.6272 41.8869C35.6518 41.8869 44.1495 44.6429 44.1495 44.6429C45.5805 45.0718 46.8519 44.2622 47.25 43.0681C47.6683 41.7638 46.9547 40.3858 45.6751 39.9676L34.1015 36.178C31.5701 35.2565 28.1588 35.4469 25.3824 36.9994V50.7731L35.0366 52.9602C36.8051 53.3492 38.5404 53.5672 40.2124 53.5672Z" fill="#49B2FC"/>
<rect x="0.75" y="0.75" width="76.5" height="68.5" rx="14.25" stroke="#49B2FC" stroke-width="1.5"/>
</svg>
