<svg width="78" height="70" viewBox="0 0 78 70" fill="none" xmlns="http://www.w3.org/2000/svg">
<path d="M49.3636 16H30.3636C28.0731 16 25.8764 16.9099 24.2568 18.5295C22.6372 20.1492 21.7273 22.3459 21.7273 24.6364V25.12C21.2052 25.4214 20.771 25.8542 20.468 26.3754C20.165 26.8966 20.0036 27.488 20 28.0909V29.8182C20.0036 30.4211 20.165 31.0125 20.468 31.5337C20.771 32.0549 21.2052 32.4877 21.7273 32.7891V37.2109C21.2052 37.5123 20.771 37.9452 20.468 38.4664C20.165 38.9875 20.0036 39.579 20 40.1818V41.9091C20.0036 42.512 20.165 43.1034 20.468 43.6246C20.771 44.1458 21.2052 44.5786 21.7273 44.88V45.3636C21.7273 46.4978 21.9507 47.6208 22.3847 48.6686C22.8187 49.7165 23.4548 50.6685 24.2568 51.4705C25.8764 53.0901 28.0731 54 30.3636 54H49.3636C50.4978 54 51.6208 53.7766 52.6686 53.3426C53.7165 52.9086 54.6685 52.2724 55.4705 51.4705C56.2724 50.6685 56.9086 49.7165 57.3426 48.6686C57.7766 47.6208 58 46.4978 58 45.3636V24.6364C58 23.5022 57.7766 22.3792 57.3426 21.3314C56.9086 20.2836 56.2724 19.3315 55.4705 18.5295C54.6685 17.7276 53.7165 17.0914 52.6686 16.6574C51.6208 16.2234 50.4978 16 49.3636 16ZM50.2273 36.7273H48.3273C47.9888 38.387 47.1697 39.9105 45.9719 41.1083C44.7742 42.3061 43.2506 43.1252 41.5909 43.4636V45.3636C41.5909 45.8218 41.4089 46.2611 41.085 46.585C40.7611 46.9089 40.3217 47.0909 39.8636 47.0909C39.4055 47.0909 38.9662 46.9089 38.6423 46.585C38.3184 46.2611 38.1364 45.8218 38.1364 45.3636V43.4636C36.4766 43.1252 34.9531 42.3061 33.7553 41.1083C32.5576 39.9105 31.7385 38.387 31.4 36.7273H29.5C29.0419 36.7273 28.6026 36.5453 28.2786 36.2214C27.9547 35.8974 27.7727 35.4581 27.7727 35C27.7727 34.5419 27.9547 34.1026 28.2786 33.7786C28.6026 33.4547 29.0419 33.2727 29.5 33.2727H31.4C31.7385 31.613 32.5576 30.0895 33.7553 28.8917C34.9531 27.6939 36.4766 26.8749 38.1364 26.5364V24.6364C38.1364 24.1783 38.3184 23.7389 38.6423 23.415C38.9662 23.0911 39.4055 22.9091 39.8636 22.9091C40.3217 22.9091 40.7611 23.0911 41.085 23.415C41.4089 23.7389 41.5909 24.1783 41.5909 24.6364V26.5364C43.2506 26.8749 44.7742 27.6939 45.9719 28.8917C47.1697 30.0895 47.9888 31.613 48.3273 33.2727H50.2273C50.6854 33.2727 51.1247 33.4547 51.4487 33.7786C51.7726 34.1026 51.9546 34.5419 51.9546 35C51.9546 35.4581 51.7726 35.8974 51.4487 36.2214C51.1247 36.5453 50.6854 36.7273 50.2273 36.7273ZM39.8636 29.8182C38.8388 29.8182 37.8369 30.1221 36.9848 30.6915C36.1326 31.2609 35.4685 32.0702 35.0763 33.017C34.6841 33.9639 34.5814 35.0058 34.7814 36.0109C34.9813 37.0161 35.4749 37.9394 36.1995 38.6641C36.9242 39.3888 37.8475 39.8823 38.8527 40.0823C39.8579 40.2822 40.8998 40.1796 41.8466 39.7874C42.7935 39.3952 43.6028 38.731 44.1722 37.8789C44.7416 37.0267 45.0455 36.0249 45.0455 35C45.0455 33.6257 44.4995 32.3077 43.5277 31.3359C42.556 30.3641 41.2379 29.8182 39.8636 29.8182ZM39.8636 37.5909C39.3512 37.5909 38.8503 37.439 38.4242 37.1543C37.9981 36.8696 37.6661 36.4649 37.47 35.9915C37.2739 35.5181 37.2225 34.9971 37.3225 34.4945C37.4225 33.992 37.6692 33.5303 38.0316 33.168C38.3939 32.8056 38.8556 32.5589 39.3582 32.4589C39.8608 32.3589 40.3817 32.4102 40.8551 32.6063C41.3286 32.8024 41.7332 33.1345 42.0179 33.5606C42.3026 33.9866 42.4546 34.4876 42.4546 35C42.4546 35.6872 42.1816 36.3462 41.6957 36.8321C41.2098 37.3179 40.5508 37.5909 39.8636 37.5909Z" fill="#49B2FC"/>
<rect x="0.75" y="0.75" width="76.5" height="68.5" rx="14.25" stroke="#49B2FC" stroke-width="1.5"/>
</svg>
