<svg width="78" height="70" viewBox="0 0 78 70" fill="none" xmlns="http://www.w3.org/2000/svg">
<g clip-path="url(#clip0_1113_492)">
<path d="M57.3354 40.021C56.9721 39.7151 56.5763 39.4191 56.1513 39.1338C56.6595 40.0397 56.9264 40.9967 56.9264 41.9793C56.9264 44.6994 54.9482 47.1866 51.3561 48.9827C48.0352 50.6432 43.6469 51.5577 39 51.5577C34.3531 51.5577 29.9649 50.6433 26.644 48.9827C23.0519 47.1866 21.0736 44.6994 21.0736 41.9793C21.0736 40.9967 21.3405 40.0397 21.8487 39.1338C21.4237 39.4191 21.028 39.7151 20.6646 40.021C19.4491 41.0443 18 42.6949 18 44.7465C18 45.948 18.4899 47.1363 19.456 48.2785C20.4674 49.474 21.9393 50.5598 23.831 51.5057C27.8622 53.5212 33.2494 54.6313 39 54.6313C44.7507 54.6313 50.1378 53.5212 54.1691 51.5056C56.0607 50.5598 57.5327 49.4739 58.544 48.2784C59.5101 47.1363 60 45.948 60 44.7465C60 42.6949 58.5509 41.0443 57.3354 40.021Z" fill="#49B2FC"/>
<path d="M39 46.0231C33.5067 46.0231 28.8431 42.4044 27.2667 37.4258C24.8771 38.7261 23.5346 40.3444 23.5346 41.9792C23.5346 43.6933 25.069 45.4437 27.7445 46.7815C30.7303 48.2744 34.7276 49.0967 39 49.0967C43.2723 49.0967 47.2696 48.2745 50.2555 46.7815C52.931 45.4437 54.4654 43.6934 54.4654 41.9792C54.4654 40.3444 53.1229 38.7261 50.7333 37.4258C49.1569 42.4043 44.4933 46.0231 39 46.0231Z" fill="#49B2FC"/>
<path d="M39 43.5622C44.4278 43.5622 48.8435 39.1465 48.8435 33.7187C48.8435 31.881 48.3322 30.0871 47.3647 28.531L39 15L30.6369 28.5283C29.6679 30.087 29.1565 31.8809 29.1565 33.7186C29.1565 39.1464 33.5722 43.5622 39 43.5622Z" fill="#49B2FC"/>
</g>
<rect x="0.75" y="0.75" width="76.5" height="68.5" rx="14.25" stroke="#49B2FC" stroke-width="1.5"/>
<defs>
<clipPath id="clip0_1113_492">
<rect width="42" height="42" fill="white" transform="translate(18 14)"/>
</clipPath>
</defs>
</svg>
