<svg width="78" height="70" viewBox="0 0 78 70" fill="none" xmlns="http://www.w3.org/2000/svg">
<path d="M43.35 50.0426L43.4128 50.0359C43.6658 50.009 43.9185 49.9796 44.1709 49.9477L44.2974 49.9317C44.5424 49.9001 44.7851 49.8662 45.0256 49.8306L45.1022 49.8195C45.6346 49.7391 46.1651 49.6467 46.6932 49.5424L46.7427 49.5322L47.0522 49.4689V54.7626C45.5329 55.0949 43.8805 55.3407 42.1416 55.4801V50.1508C42.5449 50.1207 42.9478 50.0847 43.35 50.0426ZM47.9426 49.268C48.0277 49.2476 48.1118 49.2266 48.196 49.2052L48.2695 49.187C48.7429 49.0677 49.213 48.9357 49.6792 48.791L49.7095 48.7812C49.9184 48.7157 50.1237 48.6485 50.3255 48.5794L50.4164 48.5478C50.6088 48.481 50.7977 48.4129 50.9825 48.3429L51.0417 48.3207C51.4462 48.1671 51.8454 47.9998 52.2385 47.8191L52.255 47.8116C52.4318 47.7296 52.6042 47.6459 52.7726 47.5608L52.847 47.5229L52.8483 47.5221V52.7248C51.5326 53.4486 49.8619 54.0713 47.943 54.5515L47.9426 49.268ZM24.8549 47.5813C24.985 47.6468 25.1182 47.7113 25.2536 47.7746C25.2946 47.7938 25.3346 47.8133 25.3765 47.8325C25.74 47.9995 26.1217 48.159 26.5199 48.3113L26.6548 48.3616C26.865 48.4407 27.0764 48.5163 27.2891 48.5884C27.4673 48.6489 27.6485 48.7086 27.8329 48.7665L27.9251 48.7959C28.3701 48.934 28.8315 49.0632 29.3077 49.1839L29.4132 49.2101C29.4907 49.2293 29.5678 49.2489 29.6462 49.2676V54.5523C27.7274 54.0722 26.0566 53.4495 24.7409 52.7257V47.5243L24.8549 47.5813ZM30.537 49.4685C30.6575 49.4939 30.7782 49.5186 30.8991 49.5424C31.4149 49.6449 31.9445 49.7371 32.487 49.819L32.5623 49.8301C32.8037 49.8662 33.0478 49.9001 33.2941 49.9317L33.4148 49.9473C33.6691 49.9794 33.9256 50.0092 34.1849 50.0368L34.2352 50.0422C34.6389 50.0844 35.0432 50.1206 35.448 50.1508V55.4797C33.7087 55.3403 32.0563 55.0944 30.5374 54.7621V49.4685H30.537ZM38.6109 33.8735C38.7276 33.926 38.8616 33.926 38.9779 33.8735L44.5749 31.34L42.2583 35.5232L42.2574 35.525L38.7939 41.7794L37.19 38.8834C37.1865 38.8758 37.1825 38.8696 37.1785 38.8625L35.3318 35.5281L35.3273 35.5201L33.0126 31.3404L38.6109 33.8735ZM38.4047 42.9143C38.4432 42.9839 38.4996 43.042 38.5682 43.0824C38.6367 43.1228 38.7148 43.1441 38.7944 43.1441C38.8739 43.1441 38.9521 43.1228 39.0206 43.0824C39.0891 43.042 39.1456 42.9839 39.1841 42.9143L41.0539 39.5381C46.332 39.9034 49.4806 41.416 49.4806 42.6974C49.4806 44.2274 45.092 45.9319 38.7953 45.9319C32.495 45.9319 28.1051 44.2274 28.1051 42.6974C28.1051 41.4155 31.255 39.9034 36.5353 39.5381L38.4047 42.9143ZM34.6895 36.2056L36.0591 38.6789C31.5481 39.0531 27.2138 40.4036 27.2138 42.6974C27.2138 45.377 33.1805 46.8228 38.7948 46.8228C44.407 46.8228 50.371 45.377 50.371 42.6974C50.371 40.4036 46.0385 39.0531 41.5296 38.6785L42.8993 36.2052C50.5068 36.9441 55.9987 39.6548 55.9987 42.6974C55.9987 46.3221 48.1203 49.3847 38.7948 49.3847C32.9654 49.3847 27.7015 48.1888 24.5726 46.4067C22.6961 45.3373 21.5883 44.0572 21.5883 42.6983C21.5883 42.6952 21.5865 42.693 21.5865 42.6898C21.5963 39.6504 27.0864 36.9436 34.6895 36.2056ZM21.5888 48.9264V45.0964C21.6213 45.1387 21.6583 45.1805 21.6926 45.2224C21.7304 45.2687 21.7669 45.3155 21.807 45.3614C21.8939 45.4612 21.9847 45.56 22.0809 45.6576C22.1157 45.6928 22.1536 45.7271 22.1896 45.7618C22.2604 45.8304 22.3317 45.899 22.407 45.9662C22.4533 46.0077 22.5019 46.0486 22.55 46.0901C22.6212 46.1511 22.6938 46.2117 22.7691 46.2714C22.819 46.311 22.8689 46.3506 22.9201 46.3898C23.0052 46.4549 23.0929 46.519 23.182 46.5827C23.2265 46.6148 23.2697 46.6468 23.3156 46.6784C23.451 46.772 23.5904 46.8646 23.7356 46.955C23.761 46.9711 23.7882 46.9862 23.814 47.0023L23.8505 47.0241V52.1828C22.4177 51.2127 21.5888 50.0996 21.5888 48.9264ZM36.3389 55.5412V50.2092C36.8485 50.2364 37.3586 50.2554 37.8688 50.2662C38.1753 50.2724 38.4835 50.2764 38.7944 50.2764C39.1048 50.2764 39.4126 50.2724 39.7191 50.2662L39.7894 50.2644C40.2767 50.2541 40.7637 50.2357 41.2504 50.2092V55.5412C40.446 55.5879 39.6264 55.6133 38.7944 55.6133C37.9624 55.6133 37.1428 55.5879 36.3389 55.5412ZM56 48.9264C56 50.0996 55.1707 51.2127 53.7382 52.1832V47.0245C53.9337 46.9053 54.1256 46.7802 54.3137 46.6495C54.4509 46.5537 54.5818 46.4566 54.7088 46.3582L54.7676 46.3123C54.8834 46.221 54.9947 46.1293 55.1016 46.0357L55.1466 45.997C55.3813 45.7905 55.6016 45.5683 55.8062 45.332L55.8165 45.3195C55.8797 45.2456 55.9421 45.1716 56 45.0964V48.9264ZM38.7939 14.219L44.9993 25.4241L38.7939 28.4586L32.589 25.4241L38.7939 14.219ZM49.8418 22.5125C49.8958 22.5352 49.9536 22.5471 50.0122 22.5474C50.0707 22.5477 50.1287 22.5364 50.1829 22.5142C50.2371 22.492 50.2864 22.4594 50.3279 22.4181C50.3694 22.3768 50.4023 22.3278 50.4248 22.2737L51.1927 20.444C51.2169 20.3898 51.2301 20.3313 51.2313 20.272C51.2326 20.2126 51.222 20.1536 51.2002 20.0984C51.1783 20.0432 51.1457 19.993 51.1041 19.9506C51.0626 19.9082 51.013 19.8745 50.9582 19.8516C50.9035 19.8286 50.8447 19.8169 50.7854 19.817C50.726 19.817 50.6673 19.829 50.6126 19.8521C50.5579 19.8752 50.5084 19.909 50.467 19.9516C50.4256 19.9941 50.3931 20.0444 50.3714 20.0997L49.6035 21.9294C49.5578 22.0383 49.5572 22.161 49.6019 22.2703C49.6466 22.3796 49.7329 22.4667 49.8418 22.5125ZM52.1895 25.8267H54.1707C54.2888 25.8267 54.4021 25.7798 54.4857 25.6963C54.5692 25.6128 54.6161 25.4995 54.6161 25.3813C54.6161 25.2632 54.5692 25.1499 54.4857 25.0664C54.4021 24.9829 54.2888 24.9359 54.1707 24.9359H52.1895C52.0714 24.9359 51.9581 24.9829 51.8746 25.0664C51.7911 25.1499 51.7441 25.2632 51.7441 25.3813C51.7441 25.4995 51.7911 25.6128 51.8746 25.6963C51.9581 25.7798 52.0714 25.8267 52.1895 25.8267ZM50.3714 30.663C50.3931 30.7182 50.4256 30.7686 50.467 30.8111C50.5084 30.8536 50.5579 30.8874 50.6126 30.9105C50.6673 30.9337 50.726 30.9456 50.7854 30.9457C50.8447 30.9458 50.9035 30.934 50.9582 30.9111C51.013 30.8881 51.0626 30.8545 51.1041 30.8121C51.1457 30.7697 51.1783 30.7194 51.2002 30.6642C51.222 30.609 51.2326 30.55 51.2313 30.4907C51.2301 30.4313 51.2169 30.3729 51.1927 30.3187L50.4248 28.4889C50.4032 28.4337 50.3707 28.3833 50.3292 28.3408C50.2878 28.2983 50.2383 28.2645 50.1837 28.2413C50.129 28.2182 50.0702 28.2063 50.0109 28.2062C49.9515 28.2061 49.8927 28.2179 49.838 28.2408C49.7833 28.2638 49.7337 28.2974 49.6921 28.3398C49.6506 28.3822 49.6179 28.4325 49.5961 28.4877C49.5742 28.5429 49.5636 28.6019 49.5649 28.6612C49.5662 28.7205 49.5793 28.779 49.6035 28.8332L50.3714 30.663ZM26.6348 30.9013C26.6887 30.924 26.7466 30.9359 26.8052 30.9362C26.8637 30.9365 26.9217 30.9252 26.9759 30.903C27.0301 30.8808 27.0793 30.8482 27.1209 30.8069C27.1624 30.7656 27.1953 30.7166 27.2178 30.6625L27.9857 28.8332C28.0099 28.779 28.023 28.7205 28.0243 28.6612C28.0256 28.6019 28.015 28.5429 27.9932 28.4877C27.9713 28.4325 27.9387 28.3822 27.8971 28.3398C27.8556 28.2974 27.806 28.2638 27.7512 28.2408C27.6965 28.2179 27.6377 28.2061 27.5783 28.2062C27.519 28.2063 27.4602 28.2182 27.4056 28.2413C27.3509 28.2645 27.3014 28.2983 27.26 28.3408C27.2186 28.3833 27.1861 28.4337 27.1644 28.4889L26.3965 30.3182C26.3508 30.4271 26.3502 30.5497 26.3949 30.6591C26.4396 30.7684 26.5259 30.8555 26.6348 30.9013ZM23.4181 25.8267H25.3992C25.5174 25.8267 25.6306 25.7798 25.7142 25.6963C25.7977 25.6128 25.8446 25.4995 25.8446 25.3813C25.8446 25.2632 25.7977 25.1499 25.7142 25.0664C25.6306 24.9829 25.5174 24.9359 25.3992 24.9359H23.4181C23.2999 24.9359 23.1866 24.9829 23.1031 25.0664C23.0196 25.1499 22.9727 25.2632 22.9727 25.3813C22.9727 25.4995 23.0196 25.6128 23.1031 25.6963C23.1866 25.7798 23.2999 25.8267 23.4181 25.8267ZM27.1639 22.2733C27.1856 22.3285 27.2181 22.3789 27.2595 22.4214C27.3009 22.4639 27.3504 22.4978 27.4051 22.5209C27.4598 22.544 27.5185 22.5559 27.5779 22.556C27.6372 22.5561 27.696 22.5443 27.7508 22.5214C27.8055 22.4984 27.8551 22.4648 27.8967 22.4224C27.9382 22.38 27.9709 22.3297 27.9927 22.2746C28.0146 22.2194 28.0252 22.1604 28.0239 22.101C28.0226 22.0417 28.0095 21.9832 27.9853 21.929L27.2174 20.0997C27.1957 20.0444 27.1632 19.9941 27.1218 19.9516C27.0804 19.909 27.0309 19.8752 26.9762 19.8521C26.9215 19.829 26.8628 19.817 26.8034 19.817C26.7441 19.8169 26.6853 19.8286 26.6305 19.8516C26.5758 19.8745 26.5262 19.9082 26.4846 19.9506C26.4431 19.993 26.4104 20.0432 26.3886 20.0984C26.3667 20.1536 26.3562 20.2126 26.3574 20.272C26.3587 20.3313 26.3718 20.3898 26.396 20.444L27.1639 22.2733Z" fill="#49B2FC"/>
<rect x="0.75" y="0.75" width="76.5" height="68.5" rx="14.25" stroke="#49B2FC" stroke-width="1.5"/>
</svg>
