<svg width="78" height="70" viewBox="0 0 78 70" fill="none" xmlns="http://www.w3.org/2000/svg">
<path d="M53.25 20.825V51.4964C53.2499 51.7167 53.1897 51.9327 53.076 52.1213C52.9622 52.3099 52.7991 52.4639 52.6043 52.5667C52.4095 52.6695 52.1904 52.7172 51.9705 52.7047C51.7506 52.6922 51.5383 52.6199 51.3564 52.4957L47.3288 49.7465L43.5207 52.4795C43.2989 52.6393 43.0295 52.7191 42.7566 52.7059C42.4836 52.6927 42.2231 52.5873 42.0178 52.4069L39.125 49.8773L36.2322 52.4069C36.0269 52.5873 35.7664 52.6927 35.4934 52.7059C35.2205 52.7191 34.9511 52.6393 34.7293 52.4795L30.9212 49.7465L26.8936 52.4957C26.7117 52.6199 26.4994 52.6922 26.2795 52.7047C26.0596 52.7172 25.8405 52.6695 25.6457 52.5667C25.4509 52.4639 25.2878 52.3099 25.174 52.1213C25.0603 51.9327 25.0001 51.7167 25 51.4964V20.825C25 19.2656 26.264 18 27.825 18H50.425C51.986 18 53.25 19.2656 53.25 20.825ZM32.6679 33.3357H45.5821C45.9032 33.3357 46.2112 33.2082 46.4382 32.9811C46.6653 32.7541 46.7929 32.4461 46.7929 32.125C46.7929 31.8039 46.6653 31.496 46.4382 31.2689C46.2112 31.0418 45.9032 30.9143 45.5821 30.9143H32.6679C32.3468 30.9143 32.0388 31.0418 31.8118 31.2689C31.5847 31.496 31.4571 31.8039 31.4571 32.125C31.4571 32.4461 31.5847 32.7541 31.8118 32.9811C32.0388 33.2082 32.3468 33.3357 32.6679 33.3357ZM32.6679 26.8786H45.5821C45.9032 26.8786 46.2112 26.751 46.4382 26.524C46.6653 26.2969 46.7929 25.989 46.7929 25.6679C46.7929 25.3468 46.6653 25.0388 46.4382 24.8118C46.2112 24.5847 45.9032 24.4571 45.5821 24.4571H32.6679C32.3468 24.4571 32.0388 24.5847 31.8118 24.8118C31.5847 25.0388 31.4571 25.3468 31.4571 25.6679C31.4571 25.989 31.5847 26.2969 31.8118 26.524C32.0388 26.751 32.3468 26.8786 32.6679 26.8786ZM32.6679 39.7929H39.125C39.4461 39.7929 39.7541 39.6653 39.9811 39.4383C40.2082 39.2112 40.3357 38.9032 40.3357 38.5821C40.3357 38.261 40.2082 37.9531 39.9811 37.726C39.7541 37.499 39.4461 37.3714 39.125 37.3714H32.6679C32.3468 37.3714 32.0388 37.499 31.8118 37.726C31.5847 37.9531 31.4571 38.261 31.4571 38.5821C31.4571 38.9032 31.5847 39.2112 31.8118 39.4383C32.0388 39.6653 32.3468 39.7929 32.6679 39.7929Z" fill="#49B2FC"/>
<rect x="0.75" y="0.75" width="76.5" height="68.5" rx="14.25" stroke="#49B2FC" stroke-width="1.5"/>
</svg>
