<svg width="20" height="20" viewBox="0 0 20 20" fill="none" xmlns="http://www.w3.org/2000/svg">
<path fill-rule="evenodd" clip-rule="evenodd" d="M4.77007 1.08146C8.24609 0.696156 11.754 0.696156 15.2301 1.08146C17.1291 1.29346 18.6601 2.78846 18.8831 4.69446C19.2953 8.21911 19.2953 11.7798 18.8831 15.3045C18.6601 17.2105 17.1291 18.7055 15.2311 18.9185C11.7547 19.3039 8.24642 19.3039 4.77007 18.9185C2.87107 18.7055 1.34007 17.2105 1.11707 15.3055C0.704793 11.7805 0.704793 8.21944 1.11707 4.69446C1.34007 2.78846 2.87107 1.29346 4.77007 1.08146ZM14.4101 6.97945L15.2501 6.17646V5.99945H12.3481L10.2791 11.1595L7.92707 5.99945H4.88307V6.17646L5.86307 7.35646C5.91067 7.39912 5.94753 7.45242 5.97064 7.51203C5.99376 7.57163 6.00247 7.63585 5.99607 7.69945V12.3405C6.01006 12.4229 6.00451 12.5075 5.97984 12.5874C5.95518 12.6673 5.9121 12.7403 5.85407 12.8005L4.75007 14.1405V14.3155H7.87707V14.1395L6.77407 12.8015C6.71548 12.7413 6.67135 12.6687 6.64501 12.589C6.61868 12.5093 6.61083 12.4246 6.62207 12.3415V8.32746L9.36706 14.3165H9.68707L12.0441 8.32746V13.1005C12.0441 13.2275 12.0441 13.2515 11.9601 13.3355L11.1121 14.1585V14.3345H15.2291V14.1585L14.4111 13.3545C14.3755 13.3276 14.3479 13.2914 14.3314 13.25C14.3148 13.2086 14.3099 13.1635 14.3171 13.1195V7.21446C14.3099 7.17044 14.3148 7.12529 14.3314 7.08388C14.3479 7.04246 14.3745 7.00636 14.4101 6.97945Z" fill="#B5B5BE"/>
</svg>
