<svg width="26" height="29" viewBox="0 0 26 29" fill="none" xmlns="http://www.w3.org/2000/svg">
<path d="M22.3474 6.50712C20.3216 4.41161 17.6998 3.07912 14.8543 2.67377L15.6653 1.86275C15.9867 1.54144 15.9867 1.02052 15.6653 0.699205C15.3441 0.377944 14.8231 0.377944 14.5018 0.699205L12.4182 2.78276C12.0969 3.10402 12.0969 3.62499 12.4182 3.94631L14.5017 6.02987C14.6624 6.19053 14.873 6.27088 15.0835 6.27088C15.294 6.27088 15.5046 6.19053 15.6652 6.02987C15.9866 5.70861 15.9866 5.18763 15.6652 4.86632L15.1993 4.40036C17.4598 4.84273 19.5331 5.96355 21.1642 7.65076C23.2214 9.77875 24.3544 12.5812 24.3544 15.5417C24.3545 21.8026 19.2608 26.8962 13 26.8962C6.73917 26.8962 1.64552 21.8026 1.64552 15.5418C1.64552 13.1528 2.37871 10.8675 3.76588 8.933C5.12426 7.03863 6.99686 5.62507 9.1814 4.8452C9.60934 4.69239 9.83237 4.22166 9.67961 3.79366C9.52685 3.36572 9.05601 3.14269 8.62807 3.29545C6.12671 4.18848 3.98298 5.80635 2.42857 7.9741C0.839764 10.1899 0 12.8067 0 15.5419C0 19.0143 1.35223 22.2788 3.80762 24.7342C6.26301 27.1894 9.52756 28.5417 13 28.5417C16.4724 28.5417 19.737 27.1895 22.1924 24.7342C24.6478 22.2788 26 19.0142 26 15.5418C26 12.1521 24.7028 8.94353 22.3474 6.50712Z" fill="#00D2FF"/>
<path d="M4.54675 15.5418C4.54675 20.2029 8.33891 23.9951 13.0001 23.9951C17.6613 23.9951 21.4534 20.2029 21.4534 15.5418C21.4534 10.8806 17.6613 7.08836 13.0001 7.08836C8.33885 7.08836 4.54675 10.8806 4.54675 15.5418ZM13.5052 16.2741C12.3208 15.8554 11.6347 15.5254 11.1368 15.135C10.5242 14.6544 10.2437 13.8245 10.4049 12.9691C10.5797 12.0411 11.2269 11.3024 12.0938 11.0412C12.1058 11.0376 12.1176 11.0347 12.1295 11.0312V10.6999C12.1295 10.2455 12.4979 9.87714 12.9523 9.87714C13.4067 9.87714 13.775 10.2455 13.775 10.6999V10.9788C14.3495 11.1134 14.7505 11.3759 14.9125 11.4971C15.2765 11.7692 15.351 12.2848 15.0789 12.6487C14.8068 13.0127 14.2914 13.0871 13.9273 12.8151C13.7531 12.6849 13.2722 12.4047 12.5684 12.6168C12.1526 12.742 12.045 13.1513 12.0219 13.2738C11.9763 13.5157 12.0287 13.7433 12.1523 13.8402C12.5827 14.1777 13.3549 14.4757 14.0535 14.7226C15.3315 15.1744 16.0422 16.3583 15.8219 17.6687C15.7137 18.312 15.3901 18.909 14.9105 19.3496C14.5807 19.6526 14.1964 19.8681 13.775 19.9896V20.3836C13.775 20.8379 13.4067 21.2063 12.9523 21.2063C12.4979 21.2063 12.1295 20.8379 12.1295 20.3836V20.0705C11.5822 20.0062 11.1254 19.8376 10.5112 19.4358C10.1309 19.187 10.0243 18.6771 10.2731 18.2968C10.5218 17.9165 11.0318 17.81 11.412 18.0587C11.9815 18.4313 12.1969 18.4655 12.9468 18.4603C13.6851 18.4554 14.1135 17.9051 14.1992 17.3958C14.2411 17.1472 14.2571 16.5399 13.5052 16.2741Z" fill="#00D2FF"/>
</svg>
